<svg width="134" height="66" viewBox="0 0 134 66" fill="none" xmlns="http://www.w3.org/2000/svg">
<g clip-path="url(#clip0_15701_606)">
<path d="M86.2956 2.5872L68.8508 30.0858C67.7169 31.8685 67.7169 34.1316 68.8508 35.9142L86.2956 63.4128C87.3181 65.0219 89.1043 66 91.0312 66H132.137C133.165 66 134 65.1783 134 64.1652V1.83481C134 0.821915 133.165 0 132.137 0H91.0312C89.1043 0 87.3181 0.978166 86.2956 2.5872Z" fill="white"/>
<path d="M42.9684 66H1.86257C0.834331 66 0 65.1783 0 64.1652V1.83481C0 0.821915 0.834331 0 1.86257 0H42.9684C44.8957 0 46.6819 0.978166 47.7043 2.5872L65.1491 30.0858C66.2831 31.8685 66.2831 34.1316 65.1491 35.9142L47.7043 63.4128C46.6819 65.0219 44.8957 66 42.9684 66Z" fill="white"/>
</g>
<defs>
<clipPath id="clip0_15701_606">
<rect width="134" height="66" fill="white"/>
</clipPath>
</defs>
</svg>
